<?xml version="1.0" standalone="no"?>
<!DOCTYPE svg PUBLIC "-//W3C//DTD SVG 20010904//EN"
 "http://www.w3.org/TR/2001/REC-SVG-20010904/DTD/svg10.dtd">
<svg version="1.0" xmlns="http://www.w3.org/2000/svg"
 width="1000.000000pt" height="1000.000000pt" viewBox="0 0 1000.000000 1000.000000"
 preserveAspectRatio="xMidYMid meet">

<g transform="translate(0.000000,1000.000000) scale(0.100000,-0.100000)"
fill="#000000" stroke="none">
<path d="M4715 9394 c-656 -49 -1203 -197 -1765 -479 -1052 -526 -1870 -1452
-2265 -2560 -329 -925 -348 -1920 -55 -2875 70 -227 137 -387 181 -431 82 -82
220 -79 300 8 76 81 78 146 10 321 -216 559 -305 1205 -250 1827 85 975 523
1893 1230 2580 479 465 996 779 1619 983 393 129 751 189 1182 199 682 16
1324 -124 1933 -423 229 -112 602 -342 593 -365 -2 -4 -96 -82 -210 -173 -117
-93 -219 -183 -234 -205 -16 -25 -27 -59 -31 -95 -11 -107 70 -213 175 -230
66 -11 1254 -136 1289 -136 44 0 101 24 136 58 62 58 61 55 137 753 39 360 68
668 64 684 -10 48 -41 100 -74 128 -52 44 -142 59 -211 35 -19 -6 -181 -129
-360 -273 l-325 -262 -140 99 c-622 445 -1341 717 -2149 814 -123 15 -657 27
-780 18z"/>
<path d="M4935 7617 c-937 -446 -2275 -1095 -2291 -1111 -32 -31 -36 -57 -16
-95 15 -31 54 -52 439 -237 233 -112 432 -204 444 -204 31 0 2351 1116 2372
1141 24 30 22 82 -5 109 -29 27 -822 410 -863 416 -19 3 -48 -4 -80 -19z"/>
<path d="M5310 6360 c-641 -308 -1173 -569 -1182 -581 -21 -25 -23 -77 -4
-102 16 -20 852 -427 878 -427 28 0 2351 1119 2371 1142 9 11 17 35 17 53 0
18 -8 42 -17 53 -22 26 -845 422 -876 422 -12 0 -546 -252 -1187 -560z"/>
<path d="M8953 6699 c-40 -12 -100 -70 -119 -115 -25 -60 -18 -123 30 -246
187 -485 277 -968 277 -1498 0 -672 -143 -1273 -448 -1880 -403 -806 -1038
-1439 -1849 -1844 -473 -237 -980 -375 -1524 -417 -192 -14 -605 -6 -785 15
-568 69 -1087 238 -1575 513 -151 85 -392 245 -383 253 5 4 101 82 215 174
114 91 216 179 227 194 33 48 45 113 31 174 -18 75 -86 142 -161 157 -30 6
-337 41 -683 77 -536 57 -634 65 -668 55 -44 -14 -112 -70 -134 -113 -9 -18
-39 -258 -86 -692 -79 -735 -78 -711 -16 -782 70 -79 182 -98 269 -46 26 15
180 135 344 267 163 132 301 241 305 243 5 2 65 -37 133 -86 293 -210 691
-423 1022 -547 361 -135 773 -233 1160 -277 162 -18 777 -18 940 0 1066 118
2007 567 2760 1317 899 896 1388 2157 1334 3439 -20 460 -90 836 -242 1286
-108 321 -149 378 -278 386 -35 2 -79 -1 -96 -7z"/>
<path d="M2255 6035 l-25 -24 0 -1314 c0 -1238 1 -1316 18 -1335 25 -30 2426
-1182 2463 -1182 18 0 39 9 54 25 l25 24 0 1310 0 1310 -22 25 c-30 32 -2423
1186 -2461 1186 -16 0 -38 -10 -52 -25z m1290 -1309 c248 -120 467 -229 487
-243 55 -37 93 -119 85 -183 -14 -115 -97 -189 -212 -190 -45 0 -98 23 -510
221 -253 122 -476 234 -495 248 -75 59 -100 162 -60 249 38 85 103 124 195
119 54 -4 103 -25 510 -221z"/>
<path d="M6456 5473 c-1149 -554 -1220 -589 -1232 -620 -12 -27 -14 -257 -14
-1312 0 -861 3 -1289 10 -1307 14 -36 38 -53 76 -54 20 0 411 183 1175 551
629 303 1176 566 1215 585 47 23 75 43 82 59 9 19 12 361 12 1326 l0 1301 -29
29 c-16 16 -40 29 -53 29 -13 0 -572 -265 -1242 -587z"/>
</g>
</svg>
