<?xml version="1.0" standalone="no"?>
<!DOCTYPE svg PUBLIC "-//W3C//DTD SVG 20010904//EN"
 "http://www.w3.org/TR/2001/REC-SVG-20010904/DTD/svg10.dtd">
<svg version="1.0" xmlns="http://www.w3.org/2000/svg"
 width="1000.000000pt" height="1000.000000pt" viewBox="0 0 1000.000000 1000.000000"
 preserveAspectRatio="xMidYMid meet">

<g transform="translate(0.000000,1000.000000) scale(0.100000,-0.100000)"
fill="#000000" stroke="none">
<path d="M3385 8098 c-3 -7 -6 -652 -8 -1433 l-2 -1420 -1499 -3 c-1088 -1
-1503 -5 -1513 -13 -11 -10 -13 -205 -13 -1140 l0 -1129 1513 -2 1512 -3 3
-532 2 -533 1620 0 1620 0 2 533 3 532 1513 3 1512 2 -2 1138 -3 1137 -1510 5
-1510 5 -3 1433 -2 1432 -1615 0 c-1283 0 -1617 -3 -1620 -12z m3165 -67 c11
-21 15 -2746 4 -2775 -6 -15 -152 -16 -1554 -16 -1402 0 -1548 1 -1554 16 -11
29 -7 2754 4 2775 11 19 38 19 1550 19 1512 0 1539 0 1550 -19z m2075 -3175
c39 -17 75 -68 75 -107 0 -39 -40 -91 -84 -108 -32 -12 -44 -12 -74 -1 -54 19
-71 46 -72 111 0 60 17 87 70 108 35 14 46 13 85 -3z m-7153 -20 c114 -31 175
-72 241 -165 57 -79 69 -126 65 -254 -3 -101 -6 -118 -33 -172 -31 -61 -128
-175 -150 -175 -6 0 -19 -8 -29 -19 -16 -17 -14 -22 26 -82 23 -35 50 -73 60
-83 10 -11 18 -23 18 -27 0 -4 6 -14 13 -21 7 -7 37 -49 66 -93 30 -44 62 -91
73 -104 10 -13 18 -27 18 -32 0 -4 -59 -8 -130 -8 l-131 1 -54 73 c-30 41 -55
78 -55 84 0 5 -4 11 -8 13 -9 4 -92 117 -166 229 -16 24 -34 49 -40 55 -6 6
-29 38 -51 72 -26 39 -42 57 -47 49 -4 -7 -8 -139 -8 -295 l0 -283 -102 3
-103 3 -3 609 c-1 441 1 613 9 622 17 20 446 20 521 0z m3596 2 c9 -9 12 -162
12 -626 l0 -613 -42 3 -43 3 -3 609 c-1 441 1 613 9 622 14 17 51 18 67 2z
m130 -616 l2 -623 -52 3 -53 3 0 610 0 609 25 13 c14 7 36 12 50 11 l25 -3 3
-623z m823 617 c17 -9 19 -17 14 -62 -5 -49 -4 -50 7 -22 34 79 47 95 82 95
48 0 65 -23 136 -185 12 -27 42 -92 67 -144 25 -52 53 -115 63 -140 10 -25 35
-79 54 -119 20 -40 36 -75 36 -78 0 -2 7 -16 16 -30 l17 -25 18 38 c24 50 101
215 129 278 53 117 84 185 121 262 21 44 39 85 39 90 0 5 11 20 24 32 21 19
31 22 61 17 36 -7 37 -8 31 -42 -7 -32 5 -47 19 -24 15 24 25 6 25 -42 0 -40
3 -49 12 -40 9 9 8 25 -1 68 -12 53 -12 59 5 71 49 36 94 -2 105 -91 3 -28 11
-80 18 -116 14 -74 23 -125 46 -260 9 -52 20 -117 25 -145 5 -27 17 -93 26
-145 9 -52 20 -111 24 -130 8 -33 21 -108 40 -225 4 -27 11 -67 15 -87 l8 -38
-51 0 c-46 0 -51 2 -60 28 l-10 27 -1 -28 c-1 -27 -2 -28 -53 -25 -44 2 -53 6
-56 23 -1 11 -7 43 -12 70 -5 28 -16 91 -25 140 -9 50 -20 113 -25 140 -5 28
-17 93 -26 145 -8 52 -20 109 -25 126 -5 17 -9 44 -10 60 0 16 -9 61 -18 99
-14 53 -20 65 -25 50 -4 -11 -22 -51 -41 -90 -62 -131 -103 -220 -125 -270
-33 -72 -83 -181 -123 -266 -19 -41 -49 -104 -67 -141 -17 -38 -35 -68 -40
-68 -4 0 -26 37 -48 83 -52 106 -124 258 -152 322 -13 28 -36 79 -52 115 -17
36 -43 94 -60 130 -64 141 -83 180 -89 180 -9 0 -29 -49 -29 -72 0 -20 -24
-159 -40 -228 -4 -19 -15 -78 -24 -130 -9 -52 -21 -117 -26 -145 -30 -165 -40
-223 -42 -245 -3 -23 -7 -25 -53 -25 l-50 0 -1 38 c-2 55 -14 58 -14 4 l0 -47
-55 0 c-64 0 -63 -4 -39 115 8 44 19 103 24 130 5 28 16 88 25 135 24 124 34
181 39 215 2 17 9 57 15 90 14 72 25 130 46 250 9 50 20 113 25 140 5 28 12
68 15 90 12 75 46 101 96 74z m2928 -3 c8 -9 10 -181 9 -622 l-3 -609 -50 0
-50 0 -3 602 c-2 592 -2 603 18 623 23 23 62 26 79 6z m123 -9 c4 -7 7 -284 5
-617 l-2 -605 -52 -3 -53 -3 0 616 0 616 23 9 c26 11 68 4 79 -13z m-6649
-263 c248 -55 407 -248 407 -491 0 -138 -47 -257 -139 -350 -68 -69 -107 -93
-199 -127 -278 -100 -593 80 -651 372 -35 174 19 343 147 463 81 76 140 108
247 133 80 19 103 19 188 0z m581 -24 l26 -10 0 -281 c0 -155 3 -280 6 -276 3
3 5 128 4 277 0 194 2 276 11 286 17 20 56 17 79 -6 19 -19 20 -33 20 -275 0
-284 3 -299 70 -347 72 -52 162 -49 228 8 71 60 72 66 72 345 0 136 3 254 6
263 8 21 70 32 89 16 22 -18 22 -498 0 -560 -14 -39 -14 -45 0 -60 12 -13 15
-47 15 -170 0 -84 3 -150 8 -146 4 4 9 218 12 474 5 462 5 467 26 470 11 2 32
-2 47 -7 l27 -11 0 -457 c0 -484 -1 -491 -49 -594 -29 -62 -113 -142 -188
-178 -58 -29 -69 -31 -178 -31 -109 0 -120 2 -176 30 -74 36 -119 73 -156 125
-45 65 -81 155 -68 175 9 14 78 13 93 -2 9 -9 15 -9 24 0 7 7 30 12 53 12 37
0 44 -4 72 -43 50 -72 149 -106 220 -75 79 35 123 91 123 160 0 21 -1 38 -2
38 -2 0 -27 -9 -56 -20 -63 -24 -175 -26 -246 -5 -134 41 -232 138 -276 274
-18 57 -20 89 -20 320 0 141 4 261 8 267 6 10 28 21 44 23 4 1 18 -3 32 -9z
m1836 -16 c6 -16 9 -197 8 -472 l-3 -447 -50 0 -50 0 -5 420 -5 420 -195 3
c-107 2 -215 -1 -240 -5 -31 -6 28 -10 190 -13 l235 -5 3 -209 c2 -171 0 -216
-13 -242 -8 -18 -15 -39 -15 -47 0 -9 -4 -19 -10 -22 -5 -3 -10 -14 -10 -23 1
-16 2 -16 14 1 30 40 36 20 36 -133 l0 -150 -55 0 c-48 0 -55 2 -55 20 0 25 2
25 -62 -4 -79 -36 -125 -46 -208 -46 -214 0 -393 131 -465 339 -10 28 -15 81
-15 153 0 100 3 116 32 186 26 64 44 90 107 152 134 133 185 147 554 149 l267
1 10 -26z m3469 12 c8 -9 10 -142 9 -472 l-3 -459 -47 -3 -48 -3 0 419 c0 374
-2 421 -16 426 -26 10 -438 6 -454 -4 -10 -6 61 -10 210 -10 124 0 231 -4 238
-9 19 -11 13 -424 -5 -443 -7 -6 -13 -21 -13 -33 0 -11 -7 -30 -15 -41 -17
-26 -7 -41 11 -16 27 36 35 0 32 -144 l-3 -139 -52 -3 c-48 -3 -53 -1 -53 17
0 26 -8 26 -57 2 -133 -67 -286 -69 -428 -6 -82 37 -187 141 -226 225 -40 83
-44 106 -44 225 1 118 1 121 38 197 66 137 190 239 332 273 75 19 579 20 594
1z m269 -463 l2 -473 -55 0 -55 0 0 468 c0 258 3 472 7 476 4 4 28 6 53 4 l45
-3 3 -472z m100 -1 l2 -473 -42 3 -43 3 -3 460 c-1 253 0 466 3 473 3 9 18 12
42 10 l38 -3 3 -473z m-2130 -1124 c16 -16 17 -949 2 -979 -11 -19 -38 -19
-1550 -19 -1512 0 -1539 0 -1550 19 -15 30 -14 963 2 979 17 17 3079 17 3096
0z"/>
<path d="M4984 7485 c-3 -8 -3 -19 0 -24 10 -16 36 -1 36 20 0 22 -28 26 -36
4z"/>
<path d="M4805 6945 c-5 -1 -44 -8 -85 -15 -41 -7 -99 -21 -129 -32 -47 -16
-61 -17 -108 -8 -44 10 -69 9 -136 -5 -45 -9 -89 -24 -99 -33 -18 -19 -68
-157 -68 -190 0 -11 -7 -28 -15 -36 -18 -18 -7 -49 20 -60 21 -8 19 -58 -4
-98 -13 -23 -17 -39 -11 -55 12 -29 48 -19 56 16 7 27 22 51 33 51 9 0 41 -93
41 -118 0 -11 7 -36 15 -57 9 -20 13 -45 10 -56 -7 -21 -20 -25 -30 -9 -8 13
-55 13 -55 1 0 -6 11 -22 24 -38 21 -25 30 -28 88 -28 56 0 70 4 102 29 47 35
53 51 30 77 -15 17 -16 23 -5 41 11 17 10 23 -2 35 -13 13 -17 13 -35 -5 -11
-11 -22 -26 -25 -33 -9 -22 -54 34 -67 82 -14 52 -5 96 25 115 19 12 28 13 45
4 30 -16 36 -6 22 33 -15 42 -15 73 1 117 15 45 54 110 65 110 16 0 91 -86
106 -124 9 -21 16 -58 16 -82 0 -44 7 -53 27 -33 21 21 66 6 90 -30 27 -39 29
-84 8 -135 -17 -41 -28 -44 -52 -16 -10 11 -27 20 -40 20 -24 0 -41 -19 -26
-29 16 -10 21 -35 11 -55 -8 -14 -4 -26 13 -50 32 -43 56 -59 109 -72 58 -14
105 -1 148 39 28 27 32 38 30 72 -4 53 -32 58 -81 16 -19 -17 -37 -28 -41 -24
-3 3 -6 62 -6 130 0 138 4 144 64 98 69 -53 78 -13 12 55 l-44 45 8 80 c5 44
9 119 9 166 1 82 0 87 -21 93 -24 6 -27 6 -43 1z"/>
<path d="M5150 6925 c-9 -23 -6 -173 5 -280 4 -36 0 -45 -41 -89 -24 -27 -44
-52 -44 -57 0 -20 24 -19 53 4 18 13 42 27 55 31 l22 7 0 -135 c0 -94 -3 -136
-11 -136 -6 0 -27 14 -46 30 -79 70 -124 4 -54 -80 58 -70 172 -69 243 2 36
36 51 78 28 78 -17 0 -11 22 11 46 l21 22 -21 7 c-29 9 -59 -2 -72 -26 -10
-20 -11 -19 -30 5 -14 18 -19 40 -19 89 0 59 3 68 27 87 27 21 55 23 94 6 14
-6 17 3 21 62 4 56 11 78 34 110 16 22 41 48 55 56 24 14 28 14 41 -2 45 -51
64 -130 50 -203 l-9 -47 28 8 c22 7 34 4 54 -12 41 -32 34 -110 -14 -170 -17
-21 -51 -24 -51 -4 0 7 -6 19 -14 25 -18 15 -53 -16 -37 -32 16 -16 13 -38 -5
-52 -21 -15 -12 -32 35 -71 30 -25 43 -29 97 -29 56 0 66 3 93 29 17 16 28 33
25 38 -8 12 -41 10 -64 -4 -10 -7 -21 -10 -24 -8 -2 3 2 32 10 65 9 33 20 79
24 103 11 48 27 82 39 82 5 0 16 -18 25 -40 13 -32 21 -40 41 -40 29 0 31 14
11 56 -8 16 -18 48 -22 72 -6 38 -5 42 14 42 27 0 32 29 15 76 -8 21 -18 53
-23 69 -19 69 -42 124 -58 138 -9 8 -52 23 -96 31 -61 13 -90 14 -134 6 -47
-8 -65 -7 -111 9 -50 16 -93 25 -224 46 -33 5 -38 3 -47 -20z"/>
<path d="M4260 5990 c0 -5 5 -10 11 -10 5 0 7 5 4 10 -3 6 -8 10 -11 10 -2 0
-4 -4 -4 -10z"/>
<path d="M5745 5990 c-3 -5 -1 -10 4 -10 6 0 11 5 11 10 0 6 -2 10 -4 10 -3 0
-8 -4 -11 -10z"/>
<path d="M5483 5950 c4 -18 -1 -24 -28 -36 -19 -8 -53 -14 -75 -14 -22 0 -40
-4 -40 -10 0 -6 26 -10 59 -10 95 0 153 45 100 79 -20 12 -21 11 -16 -9z"/>
<path d="M5652 5923 l3 -48 47 -3 c37 -2 50 1 67 19 30 33 26 39 -22 39 -31 0
-49 6 -62 20 -28 31 -36 24 -33 -27z"/>
<path d="M4320 5945 c-7 -8 -29 -15 -50 -15 -48 0 -55 -9 -28 -37 16 -17 32
-23 62 -23 58 0 70 10 62 54 -7 38 -25 46 -46 21z"/>
<path d="M4501 5947 c-17 -17 -13 -26 22 -47 22 -14 50 -20 89 -20 77 0 82 17
6 22 -50 4 -65 9 -83 30 -17 20 -26 23 -34 15z"/>
<path d="M4990 5930 c-76 -4 -95 -8 -95 -20 0 -10 13 -16 40 -18 57 -5 185 8
185 19 0 18 -38 24 -130 19z"/>
<path d="M8560 4750 c0 -13 7 -20 20 -20 13 0 20 7 20 20 0 13 -7 20 -20 20
-13 0 -20 -7 -20 -20z"/>
<path d="M1055 4739 c-4 -6 -5 -11 -4 -12 2 -1 94 0 204 3 110 3 189 8 175 12
-40 12 -368 10 -375 -3z"/>
<path d="M1480 4716 c0 -2 9 -6 20 -9 11 -3 20 -1 20 4 0 5 -9 9 -20 9 -11 0
-20 -2 -20 -4z"/>
<path d="M1538 4683 c7 -3 16 -2 19 1 4 3 -2 6 -13 5 -11 0 -14 -3 -6 -6z"/>
<path d="M1154 4607 c-2 -7 -3 -95 -2 -196 l3 -184 140 2 c133 2 141 4 179 29
48 32 96 119 96 173 0 69 -44 145 -102 175 -37 19 -306 20 -314 1z"/>
<path d="M1656 4542 c-2 -4 -1 -14 5 -22 7 -12 9 -10 9 8 0 23 -5 28 -14 14z"/>
<path d="M1682 4435 c0 -16 2 -22 5 -12 2 9 2 23 0 30 -3 6 -5 -1 -5 -18z"/>
<path d="M1657 4345 c-4 -8 -2 -17 3 -20 6 -4 10 3 10 14 0 25 -6 27 -13 6z"/>
<path d="M1630 4281 c0 -25 6 -27 13 -6 4 8 2 17 -3 20 -6 4 -10 -3 -10 -14z"/>
<path d="M1605 4240 c-3 -5 -1 -10 4 -10 6 0 11 5 11 10 0 6 -2 10 -4 10 -3 0
-8 -4 -11 -10z"/>
<path d="M1478 4133 c7 -3 16 -2 19 1 4 3 -2 6 -13 5 -11 0 -14 -3 -6 -6z"/>
<path d="M1350 4099 c8 -14 15 -17 23 -11 7 5 26 14 42 20 28 10 27 10 -23 11
-50 1 -52 0 -42 -20z"/>
<path d="M1406 4025 c4 -8 8 -15 10 -15 2 0 4 7 4 15 0 8 -4 15 -10 15 -5 0
-7 -7 -4 -15z"/>
<path d="M1430 3990 c0 -5 5 -10 11 -10 5 0 7 5 4 10 -3 6 -8 10 -11 10 -2 0
-4 -4 -4 -10z"/>
<path d="M1461 3954 c0 -11 3 -14 6 -6 3 7 2 16 -1 19 -3 4 -6 -2 -5 -13z"/>
<path d="M1480 3920 c0 -5 5 -10 11 -10 5 0 7 5 4 10 -3 6 -8 10 -11 10 -2 0
-4 -4 -4 -10z"/>
<path d="M1505 3880 c3 -5 8 -10 11 -10 2 0 4 5 4 10 0 6 -5 10 -11 10 -5 0
-7 -4 -4 -10z"/>
<path d="M1531 3844 c0 -11 3 -14 6 -6 3 7 2 16 -1 19 -3 4 -6 -2 -5 -13z"/>
<path d="M6080 4769 c0 -11 4 -18 10 -14 5 3 7 12 3 20 -7 21 -13 19 -13 -6z"/>
<path d="M6912 4730 c0 -14 2 -19 5 -12 2 6 2 18 0 25 -3 6 -5 1 -5 -13z"/>
<path d="M6105 4721 c-3 -5 -1 -12 5 -16 5 -3 10 1 10 9 0 18 -6 21 -15 7z"/>
<path d="M6880 4681 c0 -25 6 -27 13 -6 4 8 2 17 -3 20 -6 4 -10 -3 -10 -14z"/>
<path d="M6132 4660 c0 -14 2 -19 5 -12 2 6 2 18 0 25 -3 6 -5 1 -5 -13z"/>
<path d="M6013 4625 c0 -22 2 -30 4 -17 2 12 2 30 0 40 -3 9 -5 -1 -4 -23z"/>
<path d="M6857 4625 c-4 -8 -2 -17 3 -20 6 -4 10 3 10 14 0 25 -6 27 -13 6z"/>
<path d="M7003 4624 c-3 -8 -1 -29 5 -47 10 -32 10 -31 11 16 1 48 -5 60 -16
31z"/>
<path d="M6161 4604 c0 -11 3 -14 6 -6 3 7 2 16 -1 19 -3 4 -6 -2 -5 -13z"/>
<path d="M6831 4564 c0 -11 3 -14 6 -6 3 7 2 16 -1 19 -3 4 -6 -2 -5 -13z"/>
<path d="M6181 4554 c0 -11 3 -14 6 -6 3 7 2 16 -1 19 -3 4 -6 -2 -5 -13z"/>
<path d="M6805 4521 c-3 -5 -1 -12 5 -16 5 -3 10 1 10 9 0 18 -6 21 -15 7z"/>
<path d="M5983 4485 c0 -22 2 -30 4 -17 2 12 2 30 0 40 -3 9 -5 -1 -4 -23z"/>
<path d="M6211 4494 c0 -11 3 -14 6 -6 3 7 2 16 -1 19 -3 4 -6 -2 -5 -13z"/>
<path d="M7031 4457 c-1 -30 3 -46 9 -42 12 7 12 42 0 70 -6 15 -9 8 -9 -28z"/>
<path d="M6780 4455 c0 -8 2 -15 4 -15 2 0 6 7 10 15 3 8 1 15 -4 15 -6 0 -10
-7 -10 -15z"/>
<path d="M6231 4444 c0 -11 3 -14 6 -6 3 7 2 16 -1 19 -3 4 -6 -2 -5 -13z"/>
<path d="M6762 4410 c0 -14 2 -19 5 -12 2 6 2 18 0 25 -3 6 -5 1 -5 -13z"/>
<path d="M6262 4390 c0 -14 2 -19 5 -12 2 6 2 18 0 25 -3 6 -5 1 -5 -13z"/>
<path d="M5958 4360 c-3 -16 -1 -35 4 -42 4 -8 8 4 8 30 0 49 -6 55 -12 12z"/>
<path d="M6730 4350 c0 -11 2 -20 4 -20 2 0 6 9 9 20 3 11 1 20 -4 20 -5 0 -9
-9 -9 -20z"/>
<path d="M7054 4345 c-3 -8 -2 -32 4 -52 l10 -38 1 53 c1 52 -5 65 -15 37z"/>
<path d="M6280 4334 c0 -8 5 -12 10 -9 6 4 8 11 5 16 -9 14 -15 11 -15 -7z"/>
<path d="M6707 4300 c-3 -11 -1 -20 4 -20 5 0 9 9 9 20 0 11 -2 20 -4 20 -2 0
-6 -9 -9 -20z"/>
<path d="M6305 4291 c-3 -5 -1 -12 5 -16 5 -3 10 1 10 9 0 18 -6 21 -15 7z"/>
<path d="M6681 4244 c0 -11 3 -14 6 -6 3 7 2 16 -1 19 -3 4 -6 -2 -5 -13z"/>
<path d="M6332 4230 c0 -14 2 -19 5 -12 2 6 2 18 0 25 -3 6 -5 1 -5 -13z"/>
<path d="M5930 4203 c0 -24 2 -43 4 -43 8 0 12 60 4 72 -4 8 -8 -4 -8 -29z"/>
<path d="M7081 4175 c0 -42 2 -46 11 -28 7 15 7 30 0 50 -10 26 -10 24 -11
-22z"/>
<path d="M6656 4195 c-3 -8 -1 -15 4 -15 6 0 10 7 10 15 0 8 -2 15 -4 15 -2 0
-6 -7 -10 -15z"/>
<path d="M6362 4170 c0 -14 2 -19 5 -12 2 6 2 18 0 25 -3 6 -5 1 -5 -13z"/>
<path d="M6630 4134 c0 -8 5 -12 10 -9 6 4 8 11 5 16 -9 14 -15 11 -15 -7z"/>
<path d="M6382 4120 c0 -14 2 -19 5 -12 2 6 2 18 0 25 -3 6 -5 1 -5 -13z"/>
<path d="M5907 4078 c-3 -12 -2 -29 3 -37 7 -12 9 -6 10 22 0 42 -5 48 -13 15z"/>
<path d="M6611 4084 c0 -11 3 -14 6 -6 3 7 2 16 -1 19 -3 4 -6 -2 -5 -13z"/>
<path d="M6405 4071 c-3 -5 -1 -12 5 -16 5 -3 10 1 10 9 0 18 -6 21 -15 7z"/>
<path d="M7106 4053 c-3 -10 -2 -31 3 -48 9 -28 9 -27 10 18 1 49 -4 60 -13
30z"/>
<path d="M6580 4031 c0 -25 6 -27 13 -6 4 8 2 17 -3 20 -6 4 -10 -3 -10 -14z"/>
<path d="M6431 4014 c0 -11 3 -14 6 -6 3 7 2 16 -1 19 -3 4 -6 -2 -5 -13z"/>
<path d="M6561 3974 c0 -11 3 -14 6 -6 3 7 2 16 -1 19 -3 4 -6 -2 -5 -13z"/>
<path d="M6456 3955 c4 -8 8 -15 10 -15 2 0 4 7 4 15 0 8 -4 15 -10 15 -5 0
-7 -7 -4 -15z"/>
<path d="M5881 3920 l1 -45 8 35 c5 20 5 39 -1 45 -5 5 -9 -8 -8 -35z"/>
<path d="M7131 3895 c0 -38 2 -46 10 -33 6 11 6 29 0 50 -9 32 -9 31 -10 -17z"/>
<path d="M6531 3914 c0 -11 3 -14 6 -6 3 7 2 16 -1 19 -3 4 -6 -2 -5 -13z"/>
<path d="M6480 3908 c0 -7 9 -24 20 -38 l20 -25 0 25 c0 15 -8 30 -20 38 -16
10 -20 10 -20 0z"/>
<path d="M5856 3805 c-4 -14 -2 -33 3 -43 8 -13 10 -8 11 26 0 48 -5 54 -14
17z"/>
<path d="M7156 3773 c-3 -10 -2 -31 3 -48 9 -28 9 -27 10 18 1 49 -4 60 -13
30z"/>
<path d="M2270 4460 c18 -12 98 -12 125 0 13 6 -6 9 -60 9 -55 1 -75 -2 -65
-9z"/>
<path d="M2450 4440 c0 -5 10 -10 23 -10 18 0 19 2 7 10 -19 13 -30 13 -30 0z"/>
<path d="M2183 4433 c9 -2 23 -2 30 0 6 3 -1 5 -18 5 -16 0 -22 -2 -12 -5z"/>
<path d="M2130 4410 c0 -5 7 -7 15 -4 8 4 15 8 15 10 0 2 -7 4 -15 4 -8 0 -15
-4 -15 -10z"/>
<path d="M2508 4413 c7 -3 16 -2 19 1 4 3 -2 6 -13 5 -11 0 -14 -3 -6 -6z"/>
<path d="M2060 4359 c0 -5 5 -7 10 -4 6 3 10 8 10 11 0 2 -4 4 -10 4 -5 0 -10
-5 -10 -11z"/>
<path d="M2580 4364 c0 -10 31 -36 37 -31 3 3 -2 13 -10 22 -16 15 -27 19 -27
9z"/>
<path d="M2215 4324 c-179 -88 -221 -308 -85 -444 64 -65 102 -80 200 -80 96
0 147 19 201 77 46 48 58 72 75 145 10 41 11 65 4 78 -5 10 -10 28 -10 39 0
57 -84 156 -164 192 -61 28 -157 25 -221 -7z"/>
<path d="M2030 4329 c0 -5 5 -7 10 -4 6 3 10 8 10 11 0 2 -4 4 -10 4 -5 0 -10
-5 -10 -11z"/>
<path d="M2630 4309 c0 -5 5 -7 10 -4 6 3 10 8 10 11 0 2 -4 4 -10 4 -5 0 -10
-5 -10 -11z"/>
<path d="M2011 4294 c0 -11 3 -14 6 -6 3 7 2 16 -1 19 -3 4 -6 -2 -5 -13z"/>
<path d="M2656 4275 c4 -8 8 -15 10 -15 2 0 4 7 4 15 0 8 -4 15 -10 15 -5 0
-7 -7 -4 -15z"/>
<path d="M1981 4254 c0 -11 3 -14 6 -6 3 7 2 16 -1 19 -3 4 -6 -2 -5 -13z"/>
<path d="M2680 4234 c0 -8 5 -12 10 -9 6 4 8 11 5 16 -9 14 -15 11 -15 -7z"/>
<path d="M1962 4200 c0 -14 2 -19 5 -12 2 6 2 18 0 25 -3 6 -5 1 -5 -13z"/>
<path d="M2706 4172 c-3 -5 -1 -22 4 -38 8 -29 8 -29 9 9 1 36 -3 45 -13 29z"/>
<path d="M1933 4065 c0 -33 2 -45 4 -27 2 18 2 45 0 60 -2 15 -4 0 -4 -33z"/>
<path d="M2708 4002 c-3 -9 -1 -26 3 -37 6 -15 8 -11 8 18 1 40 -4 48 -11 19z"/>
<path d="M1957 3945 c-4 -8 -2 -17 3 -20 6 -4 10 3 10 14 0 25 -6 27 -13 6z"/>
<path d="M2680 3911 c0 -25 6 -27 13 -6 4 8 2 17 -3 20 -6 4 -10 -3 -10 -14z"/>
<path d="M1980 3884 c0 -8 5 -12 10 -9 6 4 8 11 5 16 -9 14 -15 11 -15 -7z"/>
<path d="M2631 3824 c0 -11 3 -14 6 -6 3 7 2 16 -1 19 -3 4 -6 -2 -5 -13z"/>
<path d="M2600 3795 c-10 -12 -10 -15 4 -15 9 0 16 7 16 15 0 8 -2 15 -4 15
-2 0 -9 -7 -16 -15z"/>
<path d="M2560 3759 c0 -5 5 -7 10 -4 6 3 10 8 10 11 0 2 -4 4 -10 4 -5 0 -10
-5 -10 -11z"/>
<path d="M2118 3733 c7 -3 16 -2 19 1 4 3 -2 6 -13 5 -11 0 -14 -3 -6 -6z"/>
<path d="M2528 3733 c7 -3 16 -2 19 1 4 3 -2 6 -13 5 -11 0 -14 -3 -6 -6z"/>
<path d="M2158 3713 c6 -2 18 -2 25 0 6 3 1 5 -13 5 -14 0 -19 -2 -12 -5z"/>
<path d="M2475 3710 c3 -5 12 -7 20 -3 21 7 19 13 -6 13 -11 0 -18 -4 -14 -10z"/>
<path d="M2223 3688 c-2 -5 46 -8 108 -8 62 0 109 3 106 6 -9 10 -208 11 -214
2z"/>
<path d="M3061 3924 c0 -11 3 -14 6 -6 3 7 2 16 -1 19 -3 4 -6 -2 -5 -13z"/>
<path d="M3080 3890 c0 -5 5 -10 11 -10 5 0 7 5 4 10 -3 6 -8 10 -11 10 -2 0
-4 -4 -4 -10z"/>
<path d="M3555 3870 c-3 -5 -1 -10 4 -10 6 0 11 5 11 10 0 6 -2 10 -4 10 -3 0
-8 -4 -11 -10z"/>
<path d="M3110 3850 c6 -11 16 -20 23 -19 9 0 9 2 0 6 -7 2 -13 11 -13 19 0 8
-5 14 -10 14 -7 0 -7 -6 0 -20z"/>
<path d="M3530 3839 c0 -5 5 -7 10 -4 6 3 10 8 10 11 0 2 -4 4 -10 4 -5 0 -10
-5 -10 -11z"/>
<path d="M3155 3810 c3 -5 8 -10 11 -10 2 0 4 5 4 10 0 6 -5 10 -11 10 -5 0
-7 -4 -4 -10z"/>
<path d="M3498 3813 c7 -3 16 -2 19 1 4 3 -2 6 -13 5 -11 0 -14 -3 -6 -6z"/>
<path d="M3198 3783 c7 -3 16 -2 19 1 4 3 -2 6 -13 5 -11 0 -14 -3 -6 -6z"/>
<path d="M3248 3761 c15 -9 159 -7 169 3 3 3 -36 6 -88 6 -53 0 -88 -4 -81 -9z"/>
<path d="M3612 3555 c0 -16 2 -22 5 -12 2 9 2 23 0 30 -3 6 -5 -1 -5 -18z"/>
<path d="M3062 3540 c0 -14 2 -19 5 -12 2 6 2 18 0 25 -3 6 -5 1 -5 -13z"/>
<path d="M3580 3505 c0 -8 2 -15 4 -15 2 0 6 7 10 15 3 8 1 15 -4 15 -6 0 -10
-7 -10 -15z"/>
<path d="M3080 3496 c0 -9 5 -16 10 -16 6 0 10 4 10 9 0 6 -4 13 -10 16 -5 3
-10 -1 -10 -9z"/>
<path d="M3537 3454 c-15 -13 -23 -24 -18 -24 12 0 55 40 49 45 -1 2 -16 -8
-31 -21z"/>
<path d="M3105 3460 c3 -5 8 -10 11 -10 2 0 4 5 4 10 0 6 -5 10 -11 10 -5 0
-7 -4 -4 -10z"/>
<path d="M3130 3440 c0 -5 7 -10 16 -10 8 0 12 5 9 10 -3 6 -10 10 -16 10 -5
0 -9 -4 -9 -10z"/>
<path d="M3160 3416 c0 -9 30 -14 35 -6 4 6 -3 10 -14 10 -12 0 -21 -2 -21 -4z"/>
<path d="M3480 3409 c0 -5 5 -7 10 -4 6 3 10 8 10 11 0 2 -4 4 -10 4 -5 0 -10
-5 -10 -11z"/>
<path d="M3219 3389 c-10 -6 -7 -9 14 -9 29 0 35 5 14 13 -8 3 -20 1 -28 -4z"/>
<path d="M3420 3390 c-12 -8 -9 -10 13 -10 16 0 26 4 22 10 -8 12 -16 12 -35
0z"/>
<path d="M3318 3363 c12 -2 30 -2 40 0 9 3 -1 5 -23 4 -22 0 -30 -2 -17 -4z"/>
<path d="M4205 4410 c4 -6 11 -8 16 -5 14 9 11 15 -7 15 -8 0 -12 -5 -9 -10z"/>
<path d="M4155 4390 c-3 -5 -1 -10 4 -10 6 0 11 5 11 10 0 6 -2 10 -4 10 -3 0
-8 -4 -11 -10z"/>
<path d="M4110 4360 c0 -5 7 -7 15 -4 8 4 15 8 15 10 0 2 -7 4 -15 4 -8 0 -15
-4 -15 -10z"/>
<path d="M4232 4298 c-83 -40 -152 -149 -152 -241 0 -85 71 -197 151 -237 53
-28 184 -28 237 -1 66 34 115 90 139 161 8 22 13 93 13 188 l0 152 -172 0
c-154 -1 -178 -3 -216 -22z"/>
<path d="M4012 4230 c0 -14 2 -19 5 -12 2 6 2 18 0 25 -3 6 -5 1 -5 -13z"/>
<path d="M3980 4163 c0 -22 2 -25 10 -13 13 20 13 40 0 40 -5 0 -10 -12 -10
-27z"/>
<path d="M3962 4060 c0 -19 2 -27 5 -17 2 9 2 25 0 35 -3 9 -5 1 -5 -18z"/>
<path d="M3980 3955 c0 -14 4 -25 9 -25 4 0 6 11 3 25 -2 14 -6 25 -8 25 -2 0
-4 -11 -4 -25z"/>
<path d="M4011 3884 c0 -11 3 -14 6 -6 3 7 2 16 -1 19 -3 4 -6 -2 -5 -13z"/>
<path d="M4030 3845 c0 -8 4 -15 10 -15 5 0 7 7 4 15 -4 8 -8 15 -10 15 -2 0
-4 -7 -4 -15z"/>
<path d="M4655 3840 c-3 -5 -1 -10 4 -10 6 0 11 5 11 10 0 6 -2 10 -4 10 -3 0
-8 -4 -11 -10z"/>
<path d="M4055 3810 c3 -5 8 -10 11 -10 2 0 4 5 4 10 0 6 -5 10 -11 10 -5 0
-7 -4 -4 -10z"/>
<path d="M4630 3809 c0 -5 5 -7 10 -4 6 3 10 8 10 11 0 2 -4 4 -10 4 -5 0 -10
-5 -10 -11z"/>
<path d="M4080 3790 c0 -5 5 -10 11 -10 5 0 7 5 4 10 -3 6 -8 10 -11 10 -2 0
-4 -4 -4 -10z"/>
<path d="M4105 3760 c3 -5 8 -10 11 -10 2 0 4 5 4 10 0 6 -5 10 -11 10 -5 0
-7 -4 -4 -10z"/>
<path d="M4580 3759 c0 -5 5 -7 10 -4 6 3 10 8 10 11 0 2 -4 4 -10 4 -5 0 -10
-5 -10 -11z"/>
<path d="M4550 3740 c-13 -8 -12 -10 3 -10 9 0 17 5 17 10 0 12 -1 12 -20 0z"/>
<path d="M4148 3733 c7 -3 16 -2 19 1 4 3 -2 6 -13 5 -11 0 -14 -3 -6 -6z"/>
<path d="M4188 3713 c7 -3 16 -2 19 1 4 3 -2 6 -13 5 -11 0 -14 -3 -6 -6z"/>
<path d="M4498 3713 c6 -2 18 -2 25 0 6 3 1 5 -13 5 -14 0 -19 -2 -12 -5z"/>
<path d="M4243 3688 c-2 -5 46 -8 108 -8 62 0 109 3 106 6 -9 10 -208 11 -214
2z"/>
<path d="M7675 4410 c3 -5 12 -7 20 -3 21 7 19 13 -6 13 -11 0 -18 -4 -14 -10z"/>
<path d="M7625 4390 c-3 -5 1 -10 10 -10 9 0 13 5 10 10 -3 6 -8 10 -10 10 -2
0 -7 -4 -10 -10z"/>
<path d="M7700 4294 c-75 -43 -115 -99 -141 -195 -11 -39 -10 -54 5 -99 24
-75 67 -132 124 -169 45 -29 55 -31 135 -31 102 0 146 18 205 85 60 68 72 117
72 288 l0 147 -177 0 c-172 0 -179 -1 -223 -26z"/>
<path d="M7480 4225 c0 -8 2 -15 4 -15 2 0 6 7 10 15 3 8 1 15 -4 15 -6 0 -10
-7 -10 -15z"/>
<path d="M7456 4174 c-3 -9 -2 -23 4 -32 7 -14 9 -10 10 16 0 35 -5 41 -14 16z"/>
<path d="M7454 3976 c-3 -8 -1 -23 5 -33 9 -15 10 -13 11 15 0 34 -7 42 -16
18z"/>
<path d="M7481 3894 c0 -11 3 -14 6 -6 3 7 2 16 -1 19 -3 4 -6 -2 -5 -13z"/>
<path d="M7511 3844 c0 -11 3 -14 6 -6 3 7 2 16 -1 19 -3 4 -6 -2 -5 -13z"/>
<path d="M8091 3804 c-18 -21 -6 -30 14 -11 8 9 15 18 15 21 0 11 -15 5 -29
-10z"/>
<path d="M7555 3790 c-3 -5 -1 -10 4 -10 6 0 11 5 11 10 0 6 -2 10 -4 10 -3 0
-8 -4 -11 -10z"/>
<path d="M7585 3760 c3 -5 8 -10 11 -10 2 0 4 5 4 10 0 6 -5 10 -11 10 -5 0
-7 -4 -4 -10z"/>
<path d="M8055 3760 c3 -5 8 -10 11 -10 2 0 4 5 4 10 0 6 -5 10 -11 10 -5 0
-7 -4 -4 -10z"/>
<path d="M7610 3740 c0 -6 7 -10 15 -10 8 0 15 2 15 4 0 2 -7 6 -15 10 -8 3
-15 1 -15 -4z"/>
<path d="M8020 3740 c-13 -8 -12 -10 3 -10 9 0 17 5 17 10 0 12 -1 12 -20 0z"/>
<path d="M7658 3713 c6 -2 18 -2 25 0 6 3 1 5 -13 5 -14 0 -19 -2 -12 -5z"/>
<path d="M7975 3710 c4 -6 11 -8 16 -5 14 9 11 15 -7 15 -8 0 -12 -5 -9 -10z"/>
<path d="M7723 3688 c-2 -5 44 -8 103 -8 59 0 105 3 101 6 -9 9 -198 10 -204
2z"/>
</g>
</svg>
