<?xml version="1.0" standalone="no"?>
<!DOCTYPE svg PUBLIC "-//W3C//DTD SVG 20010904//EN"
 "http://www.w3.org/TR/2001/REC-SVG-20010904/DTD/svg10.dtd">
<svg version="1.0" xmlns="http://www.w3.org/2000/svg"
 width="1000.000000pt" height="1000.000000pt" viewBox="0 0 1000.000000 1000.000000"
 preserveAspectRatio="xMidYMid meet">

<g transform="translate(0.000000,1000.000000) scale(0.100000,-0.100000)"
fill="#000000" stroke="none">
<path d="M2 8238 l3 -253 1409 -987 1409 -988 360 0 c305 0 359 2 347 14 -14
12 -3488 2442 -3518 2460 -10 6 -12 -44 -10 -246z"/>
<path d="M1150 8476 c8 -7 638 -449 1400 -981 762 -532 1400 -978 1418 -992
l32 -24 0 1005 0 1006 -1432 0 c-1210 0 -1430 -2 -1418 -14z"/>
<path d="M4440 7040 l0 -1450 -2220 0 -2220 0 0 -580 0 -580 2220 0 2220 0 0
-1465 0 -1465 575 0 575 0 0 1465 0 1465 2205 0 2205 0 0 580 0 580 -2205 0
-2205 0 0 1450 0 1450 -575 0 -575 0 0 -1450z"/>
<path d="M6010 7489 l0 -1000 28 19 c1367 955 2801 1958 2812 1968 12 12 -207
14 -1413 14 l-1427 0 0 -1001z"/>
<path d="M7633 7352 l-1623 -1137 0 -102 0 -103 218 0 218 0 1759 1231 c968
677 1764 1235 1770 1240 5 5 -129 9 -355 8 l-365 0 -1622 -1137z"/>
<path d="M10 6855 l0 -845 1207 0 c1028 0 1205 2 1193 14 -20 18 -2388 1676
-2395 1676 -3 0 -5 -380 -5 -845z"/>
<path d="M8787 6866 c-653 -458 -1193 -838 -1199 -844 -9 -9 260 -12 1195 -12
l1207 0 0 845 c0 465 -3 845 -7 844 -5 0 -542 -375 -1196 -833z"/>
<path d="M10 3145 l0 -855 97 69 c127 89 2302 1610 2328 1627 16 12 -169 14
-1203 14 l-1222 0 0 -855z"/>
<path d="M1797 2756 c-978 -684 -1781 -1247 -1784 -1250 -4 -3 159 -5 360 -4
l367 3 1630 1135 1629 1135 1 113 0 112 -212 0 -213 0 -1778 -1244z"/>
<path d="M8101 2829 c1903 -1332 1885 -1319 1893 -1319 3 0 6 109 6 243 l0
242 -1436 1003 -1436 1002 -350 0 -351 0 1674 -1171z"/>
<path d="M8506 3329 c527 -370 1077 -754 1222 -855 l262 -183 0 854 0 855
-1221 0 -1222 0 959 -671z"/>
<path d="M2610 2544 c-756 -530 -1397 -979 -1425 -999 l-50 -35 1433 0 1432 0
0 1000 c0 550 -3 1000 -7 999 -5 0 -627 -435 -1383 -965z"/>
<path d="M6010 2510 l0 -1000 1427 0 c784 0 1424 2 1422 4 -2 2 -644 451
-1426 999 l-1423 996 0 -999z"/>
</g>
</svg>
